# xmcd
#
# Track frame offsets: 
#        150
#        10264
#        35187
#        51491
#        64689
#        82462
#        99350
#        112074
#        132433
#        148063
#        165688
#        178331
#
# Disc length: 2651 seconds
#
# Revision: 1
# Processed by: cddbd v1.5.2PL0 Copyright (c) Steve Scherf et al.
# Submitted via: ExactAudioCopy v1.0b3
#
DISCID=ba0a590c
DTITLE=Dodge Brothers, The - Louisa and The Devil
DYEAR=2009
DGENRE=Rockabilly
TTITLE0=You Can't Walk Like A Man (When You're Too Drunk To Stand)
TTITLE1=The Ballad Of Frank Harris
TTITLE2=Churchouse Blues
TTITLE3=42 Days
TTITLE4=No.9 Train
TTITLE5=Dreamland
TTITLE6=Shake Baby Shake
TTITLE7=I Don't Want You To Go
TTITLE8=Brimstone Blues
TTITLE9=God's First Commandment
TTITLE10=Died And Gone To Hell
TTITLE11=The Dying Ranger
EXTD=
EXTT0=
EXTT1=
EXTT2=
EXTT3=
EXTT4=
EXTT5=
EXTT6=
EXTT7=
EXTT8=
EXTT9=
EXTT10=
EXTT11=
PLAYORDER=
